<?xml version="1.0" encoding="UTF-8"?>
<svg xmlns="http://www.w3.org/2000/svg" xmlns:xlink="http://www.w3.org/1999/xlink" width="300px" height="300px" viewBox="0 0 300 409" version="1.1">
<g id="surface1">
<path style=" stroke:none;fill-rule:evenodd;fill:rgb(93.333334%,85.09804%,76.47059%);fill-opacity:1;" d="M 59.246094 241.9375 L 89.644531 136.667969 L 211.25 136.667969 L 241.648438 241.9375 Z M 59.246094 241.9375 "/>
<path style=" stroke:none;fill-rule:nonzero;fill:rgb(20.784314%,20.784314%,20.784314%);fill-opacity:1;" d="M 198.03125 190.058594 C 198.03125 185.378906 194.1875 181.585938 189.441406 181.585938 C 184.695312 181.585938 180.851562 185.378906 180.851562 190.058594 C 180.851562 194.738281 184.695312 198.53125 189.441406 198.53125 C 194.1875 198.53125 198.03125 194.738281 198.03125 190.058594 Z M 198.03125 190.058594 "/>
<path style=" stroke:none;fill-rule:evenodd;fill:rgb(65.490198%,51.372552%,27.843139%);fill-opacity:1;" d="M 132.585938 180.425781 C 132.585938 177.46875 130.152344 175.070312 127.15625 175.070312 C 120.261719 175.070312 108.433594 175.070312 101.539062 175.070312 C 98.539062 175.070312 96.105469 177.46875 96.105469 180.425781 C 96.105469 185.039062 96.105469 191.757812 96.105469 197.015625 C 96.105469 201.449219 99.753906 205.046875 104.253906 205.046875 C 107.042969 205.046875 110.292969 205.046875 113.578125 205.046875 C 118.617188 205.046875 123.453125 203.074219 127.019531 199.554688 C 130.582031 196.042969 132.585938 191.273438 132.585938 186.304688 C 132.585938 184.171875 132.585938 182.152344 132.585938 180.425781 Z M 132.585938 180.425781 "/>
<path style=" stroke:none;fill-rule:evenodd;fill:rgb(89.019608%,69.803923%,38.039216%);fill-opacity:1;" d="M 238.636719 36.0625 L 298.988281 5.175781 L 265.910156 127.875 L 238.636719 155.140625 Z M 238.636719 36.0625 "/>
<path style=" stroke:none;fill-rule:evenodd;fill:rgb(89.019608%,69.803923%,38.039216%);fill-opacity:1;" d="M 60.351562 36.0625 L 0 5.175781 L 33.078125 127.875 L 60.351562 155.140625 Z M 60.351562 36.0625 "/>
<path style=" stroke:none;fill-rule:evenodd;fill:rgb(89.019608%,69.803923%,38.039216%);fill-opacity:1;" d="M 241.648438 92.042969 C 241.648438 92.042969 196.046875 62.066406 150.449219 62.066406 C 104.847656 62.066406 59.246094 92.042969 59.246094 92.042969 L 59.246094 181.980469 L 71.40625 205.964844 C 80.128906 172.816406 119.621094 159.007812 147.109375 179.492188 L 150.449219 181.980469 L 153.785156 179.492188 C 181.273438 159.007812 220.761719 172.816406 229.488281 205.964844 L 241.648438 181.980469 Z M 241.648438 92.042969 "/>
<path style=" stroke:none;fill-rule:evenodd;fill:rgb(83.137256%,83.137256%,83.137256%);fill-opacity:1;" d="M 120.046875 226.949219 L 95.726562 367.851562 L 62.191406 343.867188 L 89.644531 241.941406 Z M 120.046875 226.949219 "/>
<path style=" stroke:none;fill-rule:evenodd;fill:rgb(83.529413%,83.529413%,83.529413%);fill-opacity:1;" d="M 180.847656 226.949219 L 205.167969 367.851562 L 238.703125 343.867188 L 211.25 241.941406 Z M 180.847656 226.949219 "/>
<path style=" stroke:none;fill-rule:evenodd;fill:rgb(90.196079%,90.196079%,90.196079%);fill-opacity:1;" d="M 59.246094 181.984375 L 34.925781 271.917969 L 65.324219 331.875 L 89.644531 241.941406 Z M 59.246094 181.984375 "/>
<path style=" stroke:none;fill-rule:evenodd;fill:rgb(90.196079%,90.196079%,90.196079%);fill-opacity:1;" d="M 241.648438 181.984375 L 265.96875 271.917969 L 235.570312 331.875 L 211.25 241.941406 Z M 241.648438 181.984375 "/>
<path style=" stroke:none;fill-rule:evenodd;fill:rgb(90.196079%,90.196079%,90.196079%);fill-opacity:1;" d="M 120.046875 226.953125 L 92.6875 373.847656 L 150.445312 403.828125 L 208.207031 373.847656 L 180.847656 226.953125 L 152.714844 213.082031 L 150.445312 211.960938 Z M 120.046875 226.953125 "/>
<path style=" stroke:none;fill-rule:evenodd;fill:rgb(20.784314%,20.784314%,20.784314%);fill-opacity:1;" d="M 161.34375 232.945312 L 140.0625 232.945312 C 140.0625 232.945312 140.0625 236.496094 140.0625 240.445312 C 140.0625 243.226562 141.183594 245.894531 143.179688 247.859375 C 145.171875 249.824219 147.875 250.933594 150.695312 250.933594 C 150.699219 250.933594 150.707031 250.933594 150.707031 250.933594 C 153.53125 250.933594 156.234375 249.824219 158.226562 247.859375 C 160.222656 245.894531 161.34375 243.226562 161.34375 240.445312 C 161.34375 236.496094 161.34375 232.945312 161.34375 232.945312 Z M 161.34375 232.945312 "/>
</g>
</svg>
